<svg xmlns="http://www.w3.org/2000/svg" width="21.713" height="40.186" viewBox="0 0 21.713 40.186"><defs><style>.a{fill:#4b4b4b;}</style></defs><g transform="translate(-117.685)"><path class="a" d="M128.541,0a10.857,10.857,0,0,0-3.2,21.232V38.256a.946.946,0,0,0,.393.768l1.362.983a.947.947,0,0,0,1.31-.2l3.323-4.4a.947.947,0,0,0,0-1.143l-1.291-1.7v0l1.289-1.7a.946.946,0,0,0,0-1.144l-.851-1.123a.948.948,0,0,1,.006-1.151l2.194-2.834a.943.943,0,0,0,.2-.579v-3.4A10.858,10.858,0,0,0,128.541,0Zm0,36.744H127.4V21.653a11.013,11.013,0,0,0,1.141.06Zm.071-29.081a2.271,2.271,0,1,1,2.271-2.27A2.271,2.271,0,0,1,128.612,7.663Z"/></g></svg>