<svg xmlns="http://www.w3.org/2000/svg" width="37" height="33.548" viewBox="0 0 37 33.548"><defs><style>.a{fill:#4b4b4b;}</style></defs><g transform="translate(-0.001 -23.887)"><path class="a" d="M36.729,27.248a2.292,2.292,0,0,0-1.758-1.2L16.534,23.925a5.729,5.729,0,0,0-5.756,3.081L.952,46.207a3.246,3.246,0,0,0,2.517,4.7l16.821,2.038a.956.956,0,0,1,.838.948v.164a.954.954,0,0,1-1.071.948L3.47,53a4.236,4.236,0,0,1-3.243-2.1A3.476,3.476,0,0,0,3,55.467l16.809,1.939a4.2,4.2,0,0,0,4.231-2.275L36.749,29.372A2.291,2.291,0,0,0,36.729,27.248ZM23.228,44.4c-.01.006-.174.1-1.945,1.089-2.059,1.154-5.667-1.03-7.787-4.76S11.36,32.8,13.421,31.65l1.944-1.088a.9.9,0,0,1,1.24.214l1.49,2.621a.89.89,0,0,1-.457,1.165l-1.461.818a.92.92,0,0,0-.5,1.075A7.137,7.137,0,0,0,16.754,38.9a7.149,7.149,0,0,0,1.555,2.182.933.933,0,0,0,1.184.132l1.462-.819a.905.905,0,0,1,1.241.215l1.489,2.621A.889.889,0,0,1,23.228,44.4Z" transform="translate(0)"/></g></svg>